<svg xmlns="http://www.w3.org/2000/svg" version="1.1" xmlns:xlink="http://www.w3.org/1999/xlink" xmlns:svgjs="http://svgjs.dev/svgjs" width="1000" height="650" viewBox="0 0 1000 650"><g transform="matrix(1,0,0,1,0.018294916431671027,0.26315789473682116)"><svg viewBox="0 0 380 247" data-background-color="#ffffff" preserveAspectRatio="xMidYMid meet" height="650" width="1000" xmlns="http://www.w3.org/2000/svg" xmlns:xlink="http://www.w3.org/1999/xlink"><g id="tight-bounds" transform="matrix(1,0,0,1,-0.006952068244032716,-0.09999999999999432)"><svg viewBox="0 0 380.01390413648807 247.2" height="247.2" width="380.01390413648807"><g><svg viewBox="0 0 395.52 257.2867543417133" height="247.2" width="380.01390413648807"><g transform="matrix(1,0,0,1,0,207.88633800864685)"><svg viewBox="0 0 395.52 49.40041633306644" height="49.40041633306644" width="395.52"><g id="textblocktransform"><svg viewBox="0 0 395.52 49.40041633306644" height="49.40041633306644" width="395.52" id="textblock"><g><svg viewBox="0 0 395.52 49.40041633306644" height="49.40041633306644" width="395.52"><g transform="matrix(1,0,0,1,0,0)"><svg width="395.52" viewBox="1.25 -37.75 312.2300109863281 39" height="49.40041633306644" data-palette-color="#ff0000"><path d="M14.7 0L14.7-11.95 1.25-36.3 7.85-36.3 18.3-16.5 16.7-16.4 27.05-36.3 33.6-36.3 20.05-11.95 20.05 0 14.7 0ZM40 0L40-36.3 63.85-36.3 63.85-31.15 45.35-31.15 45.35-20.8 61.8-20.8 61.8-15.65 45.35-15.65 45.35-5.15 64.55-5.15 64.55 0 40 0ZM74.3 0L69.05 0 85-37.75 85.3-37.75 101.25 0 95.15 0 83.55-29.4 87.4-31.95 74.3 0ZM77.15-9L78.75-13.6 91.65-13.6 93.5-9 77.15-9ZM128.69-33.45L126.64-29.35Q124.74-30.35 122.54-31.05 120.34-31.75 118.29-31.75L118.29-31.75Q115.49-31.75 113.84-30.48 112.19-29.2 112.19-27L112.19-27Q112.19-25.45 113.29-24.3 114.39-23.15 116.14-22.3 117.89-21.45 119.84-20.7L119.84-20.7Q121.49-20.1 123.12-19.28 124.74-18.45 126.07-17.25 127.39-16.05 128.17-14.28 128.94-12.5 128.94-9.95L128.94-9.95Q128.94-7.05 127.52-4.7 126.09-2.35 123.42-0.98 120.74 0.4 116.94 0.4L116.94 0.4Q114.64 0.4 112.47-0.13 110.29-0.65 108.37-1.53 106.44-2.4 104.89-3.45L104.89-3.45 107.29-7.6Q108.49-6.75 110.04-5.98 111.59-5.2 113.27-4.75 114.94-4.3 116.44-4.3L116.44-4.3Q118.09-4.3 119.69-4.88 121.29-5.45 122.34-6.68 123.39-7.9 123.39-9.9L123.39-9.9Q123.39-11.6 122.47-12.78 121.54-13.95 120.02-14.8 118.49-15.65 116.74-16.3L116.74-16.3Q115.04-16.95 113.29-17.75 111.54-18.55 110.04-19.68 108.54-20.8 107.62-22.48 106.69-24.15 106.69-26.6L106.69-26.6Q106.69-29.5 108.07-31.68 109.44-33.85 111.89-35.1 114.34-36.35 117.54-36.5L117.54-36.5Q121.19-36.5 123.89-35.6 126.59-34.7 128.69-33.45L128.69-33.45ZM136.84 0L136.84-36.3 142.19-36.3 142.19 0 136.84 0ZM184.19 1.25L184.04 1.25 156.09-26.5 157.64-26 157.79 0 152.39 0 152.39-37.45 152.64-37.45 180.24-9.65 178.99-10 178.89-36.3 184.19-36.3 184.19 1.25ZM210.33-36.3L220.28-36.3Q223.13-36.3 225.56-35.52 227.98-34.75 229.71-33.3 231.43-31.85 232.41-29.73 233.38-27.6 233.38-24.8L233.38-24.8Q233.38-22.65 232.73-20.55 232.08-18.45 230.63-16.75 229.18-15.05 226.83-14.03 224.48-13 220.98-13L220.98-13 215.68-13 215.68 0 210.33 0 210.33-36.3ZM215.68-18.1L220.88-18.1Q222.93-18.1 224.31-18.75 225.68-19.4 226.46-20.38 227.23-21.35 227.56-22.48 227.88-23.6 227.88-24.65L227.88-24.65Q227.88-25.65 227.56-26.75 227.23-27.85 226.46-28.85 225.68-29.85 224.38-30.5 223.08-31.15 221.18-31.15L221.18-31.15 215.68-31.15 215.68-18.1ZM220.68-14.85L227.03-15 236.43 0 230.23 0 220.68-14.85ZM245.13 0L239.88 0 255.83-37.75 256.13-37.75 272.08 0 265.98 0 254.38-29.4 258.23-31.95 245.13 0ZM247.98-9L249.58-13.6 262.48-13.6 264.33-9 247.98-9ZM278.58 0L278.58-36.3 300.33-36.3 300.33-31.15 283.93-31.15 283.93-20.25 298.28-20.25 298.28-15.15 283.93-15.15 283.93 0 278.58 0ZM308.13 0L308.13-36.3 313.48-36.3 313.48 0 308.13 0Z" opacity="1" transform="matrix(1,0,0,1,0,0)" fill="#ff0000" class="wordmark-text-0" data-fill-palette-color="primary" id="text-0"></path></svg></g></svg></g></svg></g></svg></g><g transform="matrix(1,0,0,1,108.39464685348281,0)"><svg viewBox="0 0 178.73070629303436 178.73070629303436" height="178.73070629303436" width="178.73070629303436"><g><svg viewBox="0 0 178.73070629303436 178.73070629303436" height="178.73070629303436" width="178.73070629303436"><g transform="matrix(1,0,0,1,47.238121671161935,52.250970421911134)"><svg viewBox="0 0 84.25446295071049 74.22876544921209" height="74.22876544921209" width="84.25446295071049"><g><svg xmlns="http://www.w3.org/2000/svg" xmlns:xlink="http://www.w3.org/1999/xlink" version="1.1" x="0" y="0" viewBox="6.300000190734863 11.5 87.39999389648438 77" style="enable-background:new 0 0 100 100;" xml:space="preserve" height="74.22876544921209" width="84.25446295071049" class="icon-s-0" data-fill-palette-color="accent" id="s-0"><path d="M72.3 12.3L72.3 12.3 72.3 12.3l-0.4-0.8H28.2L6.3 50l21.8 38.5h43.7L93.7 50 72.3 12.3zM33.3 25.3L9.9 47.7l18.6-32.8L33.3 25.3zM70.7 14.8l6.4 35.7L36.9 25.8 70.7 14.8zM35.5 27.3l41 25.2-41 23.3V27.3zM77 54.5l-7.2 30.8-32.6-8.1L77 54.5zM33.5 75L9.9 50.5l23.6-22.7V75zM33.2 77.6l-4.6 7.7L11.5 55.1 33.2 77.6zM35 78.6l31.4 7.9H30.2L35 78.6zM79.3 53.3l11.6-2.5L72.1 84 79.3 53.3zM90.7 48.9l-11.4 2.5-5.9-33.1L90.7 48.9zM35 24.3l-5-10.8h38.2L35 24.3z" fill="#ed2647" data-fill-palette-color="accent"></path></svg></g></svg></g><g><path d="M15.856 67.116l-4.295-1.489-10.413 1.792 0.82-2.364 8.414-1.293-0.162 0.588-5.862-6.19 0.817-2.354 7.052 7.9 4.295 1.489z" fill="#ed2647" data-fill-palette-color="accent"></path><path d="M23.383 50.869l-11.448-7.7 5.063-7.528 1.621 1.091-3.928 5.84 3.268 2.197 3.494-5.194 1.621 1.09-3.494 5.195 3.317 2.231 4.078-6.064 1.621 1.091z" fill="#ed2647" data-fill-palette-color="accent"></path><path d="M36.993 34.595l-1.54 1.282-4.513-14.908 0.084-0.071 13.836 7.147-1.777 1.479-10.544-5.762 0.507-1.681zM35.632 31.279l-0.655-1.738 3.769-3.138 1.667 0.895z" fill="#ed2647" data-fill-palette-color="accent"></path><path d="M56.059 7.719l-0.047 1.738c-0.54-0.027-1.101-0.003-1.683 0.07-0.582 0.073-1.108 0.22-1.578 0.439v0c-0.644 0.301-1.088 0.687-1.329 1.159-0.242 0.472-0.245 0.961-0.009 1.467v0c0.166 0.355 0.436 0.604 0.81 0.745 0.377 0.147 0.813 0.226 1.309 0.236 0.487 0.007 0.998-0.007 1.531-0.043v0c0.444-0.038 0.896-0.051 1.357-0.039 0.463 0.019 0.909 0.093 1.336 0.224 0.436 0.134 0.837 0.365 1.203 0.692 0.369 0.319 0.691 0.774 0.966 1.365v0c0.309 0.662 0.424 1.342 0.346 2.038-0.075 0.688-0.345 1.335-0.811 1.941-0.468 0.6-1.139 1.103-2.012 1.51v0c-0.524 0.244-1.064 0.423-1.62 0.536-0.556 0.113-1.103 0.174-1.642 0.183-0.535 0-1.037-0.037-1.504-0.112v0l0.156-1.811c0.37 0.07 0.773 0.109 1.21 0.117 0.44 0.015 0.876-0.016 1.309-0.093 0.433-0.077 0.821-0.196 1.165-0.357v0c0.379-0.177 0.722-0.417 1.028-0.721 0.306-0.304 0.513-0.654 0.621-1.049 0.112-0.389 0.061-0.813-0.152-1.271v0c-0.183-0.391-0.443-0.674-0.78-0.846-0.337-0.173-0.728-0.273-1.174-0.3-0.442-0.036-0.897-0.036-1.364-0.001v0c-0.459 0.038-0.934 0.058-1.425 0.059-0.488 0.008-0.964-0.038-1.428-0.137-0.464-0.099-0.891-0.292-1.282-0.578-0.397-0.284-0.726-0.707-0.987-1.267v0c-0.312-0.669-0.425-1.327-0.338-1.976 0.08-0.646 0.337-1.243 0.771-1.79 0.425-0.55 0.997-1.015 1.715-1.394v0c0.837-0.391 1.615-0.625 2.333-0.703 0.716-0.085 1.382-0.095 1.999-0.031z" fill="#ed2647" data-fill-palette-color="accent"></path><path d="M72.614 15.922l-3.145-13.434 1.98-0.464 3.145 13.434z" fill="#ed2647" data-fill-palette-color="accent"></path><path d="M98.884 14.93l-0.059-0.001-10.425-10.737 0.585 0.2-0.129 9.878-2.053-0.037 0.258-14.233 0.099 0.002 10.294 10.755-0.466-0.138 0.141-9.998 2.014 0.036z" fill="#ed2647" data-fill-palette-color="accent"></path><path d="M131.019 10.315l3.318 1.827c0.635 0.349 1.173 0.756 1.616 1.219 0.44 0.469 0.763 0.97 0.972 1.502 0.205 0.538 0.285 1.101 0.241 1.691-0.044 0.59-0.236 1.194-0.576 1.811v0c-0.263 0.477-0.592 0.911-0.988 1.3-0.405 0.392-0.873 0.684-1.404 0.877-0.528 0.202-1.114 0.274-1.758 0.216-0.649-0.061-1.361-0.305-2.135-0.731v0l-1.773-0.976-2.384 4.332-1.781-0.98zM129.465 17.357l1.738 0.956c0.454 0.25 0.873 0.385 1.255 0.407 0.389 0.024 0.727-0.025 1.014-0.147 0.293-0.119 0.544-0.285 0.752-0.497 0.213-0.209 0.384-0.429 0.512-0.663v0c0.122-0.221 0.212-0.475 0.271-0.761 0.065-0.283 0.071-0.583 0.018-0.9-0.047-0.314-0.176-0.624-0.388-0.93-0.205-0.303-0.52-0.571-0.945-0.805v0l-1.834-1.009zM130.537 19.358l2.142 1.111 0.386 6.721-2.07-1.139z" fill="#ed2647" data-fill-palette-color="accent"></path><path d="M141.98 34.57l-1.416-1.418 14.44-5.841 0.078 0.077-5.868 14.426-1.634-1.637 4.787-11.021 1.719 0.353zM145.16 32.915l1.671-0.809 3.466 3.47-0.741 1.741z" fill="#ed2647" data-fill-palette-color="accent"></path><path d="M155.495 50.651l11.89-6.999 4.197 7.131-1.684 0.991-3.166-5.378-3.573 2.103 2.771 4.708-1.667 0.981-2.771-4.708-4.966 2.923z" fill="#ed2647" data-fill-palette-color="accent"></path><path d="M163.843 68.516l13.103-4.32 0.637 1.931-13.103 4.32z" fill="#ed2647" data-fill-palette-color="accent"></path><path d="M8.324 120.259l4.323-1.501 7.108-7.913 0.827 2.382-5.846 6.262-0.237-0.562 8.493 1.24 0.821 2.364-10.496-1.842-4.323 1.501z" fill="#ed2647" data-fill-palette-color="accent"></path><path d="M16.771 138.334l11.52-7.755 5.093 7.567-1.637 1.102-3.953-5.871-3.283 2.21 3.513 5.218-1.629 1.096-3.513-5.218-3.332 2.244 4.102 6.094-1.637 1.103z" fill="#ed2647" data-fill-palette-color="accent"></path><path d="M31.898 156.277l-1.54-1.281 13.927-7.205 0.084 0.07-4.546 15.007-1.793-1.491 3.779-11.482 1.759 0.192zM34.94 154.334l1.596-0.967 3.794 3.155-0.584 1.809z" fill="#ed2647" data-fill-palette-color="accent"></path><path d="M63.542 161.152l-1.378 1.096c-0.33-0.44-0.712-0.856-1.146-1.249-0.436-0.401-0.889-0.711-1.359-0.93v0c-0.651-0.303-1.234-0.395-1.751-0.277-0.52 0.11-0.9 0.42-1.139 0.933v0c-0.166 0.355-0.182 0.729-0.049 1.121 0.13 0.383 0.351 0.765 0.665 1.145 0.311 0.387 0.652 0.773 1.023 1.158v0c0.315 0.315 0.619 0.655 0.911 1.018 0.284 0.367 0.515 0.76 0.693 1.181 0.178 0.42 0.259 0.876 0.243 1.367-0.01 0.494-0.153 1.036-0.428 1.626v0c-0.311 0.669-0.758 1.201-1.338 1.598-0.584 0.388-1.26 0.597-2.03 0.627-0.76 0.027-1.58-0.164-2.46-0.573v0c-0.536-0.25-1.026-0.551-1.47-0.905-0.444-0.353-0.841-0.736-1.191-1.149-0.353-0.406-0.654-0.814-0.904-1.224v0l1.505-1.058c0.185 0.328 0.415 0.666 0.693 1.015 0.274 0.34 0.582 0.656 0.922 0.947 0.338 0.282 0.681 0.504 1.031 0.667v0c0.38 0.177 0.784 0.284 1.213 0.323 0.435 0.041 0.839-0.023 1.213-0.194 0.373-0.171 0.667-0.488 0.883-0.952v0c0.182-0.392 0.231-0.772 0.147-1.142-0.091-0.372-0.264-0.739-0.521-1.1-0.263-0.364-0.562-0.713-0.899-1.046v0c-0.321-0.333-0.64-0.687-0.957-1.061-0.317-0.375-0.589-0.773-0.818-1.195-0.229-0.422-0.359-0.875-0.39-1.358-0.034-0.493 0.08-1.022 0.344-1.589v0c0.311-0.669 0.743-1.179 1.295-1.53 0.555-0.357 1.183-0.549 1.884-0.574 0.701-0.025 1.43 0.116 2.188 0.426v0c0.843 0.393 1.526 0.839 2.049 1.339 0.531 0.497 0.973 1.003 1.326 1.519z" fill="#ed2647" data-fill-palette-color="accent"></path><path d="M70.824 176.584l3.162-13.522 1.99 0.465-3.163 13.522z" fill="#ed2647" data-fill-palette-color="accent"></path><path d="M99.107 178.73l-0.06 0.001-10.877-10.421 0.591 0.179 0.241 9.946-2.063 0.037-0.261-14.323 0.09-0.001 10.748 10.443-0.48-0.131-0.213-10.056 2.023-0.037z" fill="#ed2647" data-fill-palette-color="accent"></path><path d="M121.503 157.159l3.337-1.836c0.635-0.349 1.271-0.585 1.909-0.708 0.638-0.123 1.237-0.13 1.797-0.022 0.564 0.115 1.086 0.347 1.566 0.697 0.478 0.359 0.888 0.85 1.232 1.473v0c0.266 0.483 0.454 0.998 0.564 1.544 0.114 0.552 0.115 1.105 0.003 1.66-0.118 0.558-0.375 1.097-0.771 1.618-0.399 0.515-0.992 0.989-1.778 1.422v0l-1.773 0.975 2.398 4.359-1.791 0.985zM126.648 162.27l1.746-0.96c0.454-0.25 0.796-0.532 1.025-0.848 0.232-0.31 0.371-0.621 0.418-0.936 0.056-0.312 0.053-0.613-0.009-0.905-0.071-0.295-0.171-0.558-0.299-0.791v0c-0.122-0.221-0.285-0.435-0.489-0.642-0.213-0.209-0.468-0.376-0.765-0.5-0.291-0.128-0.621-0.185-0.992-0.171-0.371 0.015-0.769 0.139-1.195 0.372v0l-1.843 1.014zM128.925 162.44l2.103-1.225 5.911 3.302-2.078 1.143z" fill="#ed2647" data-fill-palette-color="accent"></path><path d="M147.609 155.815l-1.416 1.417-5.908-14.524 0.077-0.078 14.531 5.892-1.648 1.65-11.091-4.808 0.352-1.734zM145.951 152.608l-0.819-1.677 3.487-3.491 1.749 0.746z" fill="#ed2647" data-fill-palette-color="accent"></path><path d="M162.372 138.132l-11.967-7.046 4.219-7.164 1.701 1.002-3.182 5.403 3.591 2.114 2.787-4.733 1.683 0.991-2.786 4.733 4.99 2.939z" fill="#ed2647" data-fill-palette-color="accent"></path><path d="M171.424 118.724l-13.187-4.353 0.641-1.94 13.187 4.353z" fill="#ed2647" data-fill-palette-color="accent"></path><path d="M2.061 92.36c0-3.026 2.453-5.48 5.48-5.48 3.026 0 5.48 2.453 5.48 5.48 0 3.026-2.453 5.48-5.48 5.48-3.026 0-5.48-2.453-5.48-5.48z" fill="#ed2647" data-fill-palette-color="accent"></path><path d="M165.981 92.36c0-3.026 2.453-5.48 5.48-5.48 3.026 0 5.48 2.453 5.479 5.48 0 3.026-2.453 5.48-5.479 5.48-3.026 0-5.48-2.453-5.48-5.48z" fill="#ed2647" data-fill-palette-color="accent"></path></g></svg></g></svg></g><g></g></svg></g><defs></defs></svg><rect width="380.01390413648807" height="247.2" fill="none" stroke="none" visibility="hidden"></rect></g></svg></g></svg>